<svg id="visual" viewBox="0 0 900 600" width="900" height="600" xmlns="http://www.w3.org/2000/svg" xmlns:xlink="http://www.w3.org/1999/xlink" version="1.1"><rect x="0" y="0" width="900" height="600" fill="#FF0066"></rect><g transform="translate(441.1801495226611 319.69469626580593)"><path d="M171.6 -193C215.9 -167.3 240.9 -107.1 236.8 -53.2C232.7 0.7 199.5 48.4 166.6 87.5C133.7 126.6 101 157.3 64.2 166.4C27.4 175.4 -13.7 162.9 -68.4 156.6C-123.1 150.2 -191.4 150.1 -212.2 119.8C-233 89.5 -206.1 28.9 -178.9 -15.2C-151.6 -59.4 -124 -87.1 -94.2 -115.4C-64.3 -143.6 -32.1 -172.3 15.7 -191.1C63.6 -209.8 127.3 -218.7 171.6 -193" fill="#BB004B"></path></g></svg>