<svg id="visual" viewBox="0 0 900 600" width="900" height="600" xmlns="http://www.w3.org/2000/svg" xmlns:xlink="http://www.w3.org/1999/xlink" version="1.1"><rect x="0" y="0" width="900" height="600" fill="#FF0066"></rect><g transform="translate(464.37730529255043 258.61976793519125)"><path d="M134.2 -155.3C163.4 -135.4 169.4 -83.2 183.1 -28.8C196.8 25.6 218.4 82 206.2 134.2C194.1 186.3 148.4 234.1 95.7 245.9C43 257.8 -16.6 233.7 -63.9 204.1C-111.2 174.5 -146.1 139.5 -179.3 96.5C-212.6 53.5 -244.2 2.4 -237.7 -43.2C-231.2 -88.8 -186.6 -129.1 -140.7 -146C-94.7 -162.9 -47.4 -156.4 2.6 -159.5C52.5 -162.6 105 -175.1 134.2 -155.3" fill="#BB004B"></path></g></svg>